<svg xmlns="http://www.w3.org/2000/svg" viewBox="59.6 468.3 54.5 66.4">
<rect x="59.6" y="468.3" width="54.5" height="66.4" fill="#FFFFFF"></rect>
<g><g><path d="M103 510.3 100.9 506.9 98.8 510.3 100.7 510.3 100.7 517.1C100.7 520.7 97.8 523.5 94.3 523.5L65.8 523.5 65.8 524 94.3 524C98.1 524 101.2 520.9 101.2 517.1L101.2 510.3 103.1 510.3Z" fill="#F7921E"></path><path d="M94.8 500 94.8 498.1C94.8 494.3 91.7 491.2 87.9 491.2L85.4 491.2 86.9 491.2 65.7 491.2 65.7 491.7 86.9 491.7 85.4 491.7 87.9 491.7C91.5 491.7 94.3 494.6 94.3 498.1L94.3 500 92.4 500 94.5 503.4 96.6 500 94.7 500Z" fill="#B01E78"></path><path d="M88.5 500.3C88.5 496.7 91 494.5 94.5 494.5L104.7 494.5 104.7 496.4 108.1 494.3 104.7 492.2 104.7 494.1 94.5 494.1C90.7 494.1 88 496.6 88 500.4L88 501.5C88 505.1 85 507.6 81.5 507.6L79.4 507.6 79.9 507.6 65.7 507.6 65.7 508.1 79.9 508.1 79.4 508.1 81.5 508.1C85.3 508.1 88.5 505.3 88.5 501.5L88.5 500.4Z" fill="#00ADA8"></path><g><path d="M77.9 496 77.9 498.7 82.5 498.7 82.5 500.5 77.9 500.5 77.9 503.3 83.2 503.3 83.2 505.1 76 505.1 76 494.3 83 494.3 83 496.1 77.9 496.1Z" fill="#54565A"></path><path d="M73.5 517.3 70.6 517.3 70.6 520.2 68.9 520.2 68.9 517.3 66 517.3 66 515.6 68.9 515.6 68.9 512.7 70.6 512.7 70.6 515.6 73.5 515.6 73.5 517.3Z" fill="#54565A"></path><path d="M79 512.1 79 521.2 77.1 521.2 77.1 512.1 73.8 512.1 73.8 510.3 82.4 510.3 82.4 512.1 79 512.1Z" fill="#54565A"></path><path d="M91.2 512.6C90.3 512.2 89.4 512 88.4 512 87.4 512 86.2 512.3 85.6 513 85 513.7 84.7 514.6 84.7 515.7 84.7 516.8 85 517.8 85.7 518.5 86.4 519.2 87.3 519.5 88.4 519.5 89.5 519.5 89.5 519.5 90 519.3 90.5 519.2 90.9 519 91.3 518.8L91.3 520.7C90.9 520.9 90.4 521.1 89.9 521.2 89.4 521.3 88.8 521.4 88.2 521.4 86.5 521.4 85.1 520.9 84.1 519.9 83.1 518.9 82.5 517.5 82.5 515.8 82.5 514.1 83 512.7 84 511.7 85 510.7 86.4 510.2 88.2 510.2 90 510.2 90.2 510.4 91 510.7L91 512.6Z" fill="#54565A"></path><path d="M71.3 495.9 71.3 505 69.4 505 69.4 495.9 66.1 495.9 66.1 494.1 74.7 494.1 74.7 495.9 71.3 495.9Z" fill="#54565A"></path></g></g><g><g><path d="M85.4 484.7 84.8 484.7 84.8 487.1 85.4 487.1 85.4 484.7ZM85.4 483.5 84.8 483.5 84.8 484.1 85.4 484.1 85.4 483.5ZM83.5 484.7 83.5 484 82.9 484 82.9 484.7 82.5 484.7 82.5 485.2 82.9 485.2 82.9 486.3C82.9 486.6 82.9 486.8 83.1 486.9 83.2 487 83.4 487.1 83.7 487.1 84 487.1 84 487.1 84.2 487.1L84.2 486.6C84.1 486.6 84 486.6 83.9 486.6 83.8 486.6 83.7 486.6 83.6 486.6 83.6 486.6 83.6 486.4 83.6 486.3L83.6 485.3 84.3 485.3 84.3 484.8 83.6 484.8ZM78.4 486.6C78.2 486.6 78 486.6 77.9 486.4 77.8 486.3 77.7 486.1 77.7 485.9 77.7 485.7 77.7 485.5 77.9 485.4 78 485.3 78.2 485.2 78.4 485.2 78.6 485.2 78.6 485.2 78.7 485.2L78.8 485.2 78.8 486.5C78.6 486.5 78.5 486.5 78.4 486.5M77.1 485.9C77.1 486.2 77.2 486.5 77.4 486.8 77.6 487 77.9 487.1 78.3 487.1 78.7 487.1 79 487.1 79.4 486.8L79.4 483.3 78.8 483.3 78.8 484.6C78.6 484.6 78.4 484.6 78.3 484.6 77.9 484.6 77.6 484.7 77.4 485 77.2 485.2 77.1 485.6 77.1 486M71.8 486.9C72 487.1 72.2 487.1 72.6 487.1 73 487.1 73.3 487.1 73.7 487L73.7 484.7 73.1 484.7 73.1 486.6C72.9 486.6 72.8 486.6 72.6 486.6 72.4 486.6 72.3 486.6 72.2 486.5 72.2 486.5 72.1 486.3 72.1 486.2L72.1 484.7 71.5 484.7 71.5 486.2C71.5 486.5 71.5 486.7 71.7 486.9M69.7 486.6C69.5 486.6 69.4 486.6 69.2 486.4 69 486.2 69 486.1 69 485.9 69 485.7 69 485.5 69.2 485.4 69.3 485.3 69.5 485.2 69.7 485.2 69.9 485.2 70.1 485.2 70.2 485.4 70.3 485.5 70.4 485.7 70.4 485.9 70.4 486.1 70.4 486.3 70.2 486.4 70.1 486.5 69.9 486.6 69.7 486.6M69.7 487.1C70.1 487.1 70.4 487 70.6 486.7 70.8 486.5 71 486.2 71 485.8 71 485.4 70.9 485.1 70.7 484.9 70.5 484.7 70.2 484.5 69.8 484.5 69.4 484.5 69.1 484.6 68.9 484.9 68.7 485.1 68.5 485.4 68.5 485.8 68.5 486.2 68.6 486.5 68.9 486.7 69.1 486.9 69.4 487.1 69.8 487.1M67.9 484.2 67.9 483.6 65.7 483.6 65.7 487 66.3 487 66.3 485.6 67.8 485.6 67.8 485 66.3 485 66.3 484.1 67.9 484.1Z" fill="#A1A1A4"></path><path d="M87.1 480.3C87.1 480.3 87.2 480.3 87.3 480.3 87.3 480.3 87.5 480.3 87.6 480.3 87.8 480.3 88 480.3 88.1 480.5 88.2 480.6 88.3 480.8 88.3 481 88.3 481.2 88.3 481.4 88.1 481.6 88 481.7 87.8 481.8 87.5 481.8 87.2 481.8 87.2 481.8 87.1 481.8L87.1 480.5ZM88.9 480.9C88.9 480.6 88.8 480.3 88.6 480 88.4 479.8 88.1 479.7 87.8 479.7 87.5 479.7 87.3 479.7 87.2 479.8L87.2 478.5 86.6 478.5 86.6 482C86.9 482.1 87.2 482.2 87.6 482.2 88 482.2 88.3 482.1 88.6 481.8 88.8 481.6 89 481.2 89 480.8M83 482.1 83 478.7 82.3 478.7 81.2 481.3 81.2 481.3 80.1 478.7 79.3 478.7 79.3 482.1 79.9 482.1 79.9 479.7 79.9 479.7 80.9 482.1 81.4 482.1 82.4 479.7 82.4 479.7 82.4 482.2 83 482.2ZM78.7 480.5C78.7 480.2 78.7 480 78.5 479.8 78.3 479.7 78.1 479.6 77.7 479.6 77.3 479.6 77 479.6 76.6 479.8L76.6 482.1 77.2 482.1 77.2 480.2C77.4 480.2 77.5 480.2 77.7 480.2 77.9 480.2 78 480.2 78.1 480.2 78.1 480.2 78.2 480.4 78.2 480.5L78.2 482 78.8 482 78.8 480.4ZM74.8 481.6C74.6 481.6 74.5 481.6 74.3 481.4 74.2 481.3 74.1 481.1 74.1 480.9 74.1 480.7 74.1 480.5 74.3 480.4 74.4 480.3 74.6 480.2 74.8 480.2 75 480.2 75.2 480.2 75.3 480.4 75.4 480.5 75.5 480.7 75.5 480.9 75.5 481.1 75.5 481.3 75.3 481.4 75.2 481.5 75 481.6 74.8 481.6M74.8 482.2C75.2 482.2 75.5 482.1 75.7 481.8 75.9 481.6 76.1 481.3 76.1 480.9 76.1 480.5 76 480.2 75.8 480 75.6 479.8 75.3 479.6 74.9 479.6 74.5 479.6 74.2 479.7 74 480 73.8 480.2 73.6 480.5 73.6 480.9 73.6 481.3 73.7 481.6 74 481.8 74.2 482 74.5 482.2 74.9 482.2M72.5 480.9 73.4 479.7 72.7 479.7 72.1 480.5 71.5 479.7 70.8 479.7 71.7 480.9 70.8 482.1 71.5 482.1 72.1 481.3 72.7 482.1 73.4 482.1 72.4 480.9ZM69.9 480.9 70.8 479.7 70.1 479.7 69.5 480.5 68.9 479.7 68.2 479.7 69.1 480.9 68.2 482.1 68.9 482.1 69.5 481.3 70.1 482.1 70.8 482.1 69.8 480.9ZM68 479.2 68 478.6 65.8 478.6 65.8 482 68.1 482 68.1 481.4 66.4 481.4 66.4 480.5 67.9 480.5 67.9 479.9 66.4 479.9 66.4 479.1 68 479.1Z" fill="#A1A1A4"></path></g><path d="M85.6 480C85.4 479.8 85.1 479.6 84.7 479.6 84.3 479.6 84 479.7 83.8 480 83.6 480.2 83.4 480.5 83.4 480.9 83.4 481.3 83.5 481.6 83.8 481.8 84 482 84.3 482.2 84.7 482.2 85.1 482.2 85.4 482.1 85.6 481.8 85.8 481.6 86 481.3 86 480.9 86 480.5 85.9 480.2 85.7 480ZM85.2 481.4C85.1 481.5 84.9 481.6 84.7 481.6 84.5 481.6 84.4 481.6 84.2 481.4 84.1 481.3 84 481.1 84 480.9 84 480.7 84 480.5 84.2 480.4 84.3 480.3 84.5 480.2 84.7 480.2 84.9 480.2 85.1 480.2 85.2 480.4 85.3 480.5 85.4 480.7 85.4 480.9 85.4 481.1 85.4 481.3 85.2 481.4Z" fill="#A1A1A4"></path><rect x="90.6" y="478.5" width="0.6" height="3.6" fill="#A1A1A4"></rect><rect x="89.4" y="479.7" width="0.6" height="2.4" fill="#A1A1A4"></rect><rect x="89.4" y="478.6" width="0.6" height="0.6" fill="#A1A1A4"></rect><path d="M91.1 485.5C91.1 485.2 91.1 485 90.9 484.8 90.7 484.7 90.5 484.6 90.1 484.6 89.7 484.6 89.4 484.6 89 484.8L89 487.1 89.6 487.1 89.6 485.2C89.8 485.2 89.9 485.2 90.1 485.2 90.3 485.2 90.4 485.2 90.5 485.2 90.5 485.2 90.6 485.4 90.6 485.5L90.6 487 91.2 487 91.2 485.4Z" fill="#A1A1A4"></path><path d="M88.1 485C87.9 484.8 87.6 484.6 87.2 484.6 86.8 484.6 86.5 484.7 86.3 485 86.1 485.2 85.9 485.5 85.9 485.9 85.9 486.3 86 486.6 86.3 486.8 86.5 487 86.8 487.2 87.2 487.2 87.6 487.2 87.9 487.1 88.1 486.8 88.3 486.6 88.5 486.3 88.5 485.9 88.5 485.5 88.4 485.2 88.2 485ZM87.6 486.4C87.5 486.5 87.3 486.6 87.1 486.6 86.9 486.6 86.8 486.6 86.6 486.4 86.5 486.3 86.4 486.1 86.4 485.9 86.4 485.7 86.4 485.5 86.6 485.4 86.7 485.3 86.9 485.2 87.1 485.2 87.3 485.2 87.5 485.2 87.6 485.4 87.7 485.5 87.8 485.7 87.8 485.9 87.8 486.1 87.8 486.3 87.6 486.4Z" fill="#A1A1A4"></path><path d="M81.8 484.8C81.6 484.6 81.4 484.6 81 484.6 80.6 484.6 80.7 484.6 80.5 484.6 80.3 484.6 80.2 484.6 80.1 484.7L80.1 485.2C80.2 485.2 80.3 485.2 80.5 485.1 80.6 485.1 80.8 485.1 80.9 485.1 81 485.1 81.2 485.1 81.3 485.1 81.3 485.1 81.4 485.3 81.4 485.4L81.4 485.4C81.3 485.4 81.2 485.4 81 485.4 80.6 485.4 80.4 485.4 80.2 485.6 80 485.7 79.9 485.9 79.9 486.2 79.9 486.7 80.2 487 80.9 487 81.6 487 81.6 487 81.9 486.8L81.9 485.4C81.9 485.1 81.9 484.9 81.7 484.7ZM81.4 486.6C81.3 486.6 81.1 486.6 81 486.6 80.9 486.6 80.7 486.6 80.6 486.6 80.6 486.6 80.5 486.5 80.5 486.4 80.5 486.3 80.5 486.2 80.6 486.2 80.6 486.2 80.8 486.2 81 486.2 81.2 486.2 81.3 486.2 81.4 486.2L81.4 486.8Z" fill="#A1A1A4"></path><path d="M76.5 485.5C76.5 485.2 76.5 485 76.3 484.8 76.1 484.7 75.9 484.6 75.5 484.6 75.1 484.6 74.8 484.6 74.4 484.8L74.4 487.1 75 487.1 75 485.2C75.2 485.2 75.3 485.2 75.5 485.2 75.7 485.2 75.8 485.2 75.9 485.2 75.9 485.2 76 485.4 76 485.5L76 487 76.6 487 76.6 485.4Z" fill="#A1A1A4"></path></g></g><path d="M907.1 539.6 907.1 368.5 913.1 368.5 906.2 357.7 899.4 368.5 905.6 368.5 905.6 539.6" fill="#F7921E"></path>
</svg>